<?xml version="1.0" encoding="UTF-8"?> <svg width="312px" height="173px" viewBox="-5 -5 312 173" version="1.1" xmlns="http://www.w3.org/2000/svg" xmlns:xlink="http://www.w3.org/1999/xlink">
<title>Portsmouth Cycle Forum Logo</title>
<desc>Rebuilt by hand by Rich Boakes</desc>
    <path
        id="chain" stroke="#89A02C" fill="none" stroke-width="10"
        d="M90,0.4 C-30,-9.5 -30,170.4 90,161.4 C190,145.4 190,145.4 254,135.4 C318,125.4 318,35.4 254,25.4 C190,15.4 190,15.4 90,0.4 Z"
    ></path>    
    <path
        id="crank" fill="#FF6600"
        d="M80,10.4 C104.9,10.4 126.7,23.4 139.1,42.9 C130.3,35.1 118.7,30.4 106,30.4 C78.3,30.4 56,52.7 56,80.4 C56,108 78.3,130.4 106,130.4 C118.7,130.4 130.3,125.6 139.1,117.8 C126.7,137.3 104.9,150.4 80,150.4 C41.3,150.4 10,119 10,80.4 C10,41.7 41.3,10.4 80,10.4 Z"
    ></path>
    <path
        id="cog" fill="#FF6600"
        d="M245,35.4 C269.8,35.4 290,55.5 290,80.4 C290,105.2 269.8,125.4 245,125.4 C220.1,125.4 200,105.2 200,80.4 C200,55.5 220.1,35.4 245,35.4 Z M245,43.4 L239.4,66.9 L218.8,54.2 L231.5,74.8 L208,80.4 L231.5,85.9 L218.8,106.5 L239.4,93.8 L245,117.4 L250.5,93.8 L271.1,106.5 L258.4,85.9 L282,80.4 L258.4,74.8 L271.1,54.2 L250.5,66.9 L245,43.4 Z"
    ></path>
</svg>
