<?xml version="1.0" encoding="UTF-8"?> <svg width="10px" height="10px" viewBox="200 30 100 100" version="1.1" xmlns="http://www.w3.org/2000/svg" xmlns:xlink="http://www.w3.org/1999/xlink">
<title>Portsmouth Cycle Forum Logo</title>
<desc>Rebuilt by hand by Rich Boakes</desc>
    <style>
    path { fill: currentColor; }
    </style>
    <path
        id="cog"
        d="M245,35.4 C269.8,35.4 290,55.5 290,80.4 C290,105.2 269.8,125.4 245,125.4 C220.1,125.4 200,105.2 200,80.4 C200,55.5 220.1,35.4 245,35.4 Z M245,43.4 L239.4,66.9 L218.8,54.2 L231.5,74.8 L208,80.4 L231.5,85.9 L218.8,106.5 L239.4,93.8 L245,117.4 L250.5,93.8 L271.1,106.5 L258.4,85.9 L282,80.4 L258.4,74.8 L271.1,54.2 L250.5,66.9 L245,43.4 Z"
    ></path>
</svg>
